<?xml version="1.0" encoding="UTF-8"?>
<svg xmlns="http://www.w3.org/2000/svg" xmlns:xlink="http://www.w3.org/1999/xlink" width="28pt" height="28pt" viewBox="0 0 28 28" version="1.1">
<g id="surface1">
<path style=" stroke:none;fill-rule:nonzero;fill:rgb(32.54902%,68.235294%,58.039216%);fill-opacity:1;" d="M 14 0 C 21.730469 0 28 6.269531 28 14 C 28 21.730469 21.730469 28 14 28 C 6.269531 28 0 21.734375 0 14 C 0 6.265625 6.265625 0 14 0 "/>
<path style=" stroke:none;fill-rule:nonzero;fill:rgb(100%,100%,100%);fill-opacity:1;" d="M 15.726562 12.132812 L 15.726562 10.050781 L 20.492188 10.050781 L 20.492188 6.878906 L 7.523438 6.878906 L 7.523438 10.050781 L 12.285156 10.050781 L 12.285156 12.132812 C 8.414062 12.3125 5.503906 13.078125 5.503906 13.996094 C 5.503906 14.914062 8.414062 15.679688 12.285156 15.859375 L 12.285156 22.53125 L 15.730469 22.53125 L 15.730469 15.859375 C 19.59375 15.679688 22.496094 14.914062 22.496094 13.996094 C 22.496094 13.078125 19.59375 12.3125 15.730469 12.136719 M 15.730469 15.292969 C 15.632812 15.296875 15.132812 15.328125 14.019531 15.328125 C 13.132812 15.328125 12.507812 15.304688 12.285156 15.292969 C 8.867188 15.144531 6.3125 14.546875 6.3125 13.835938 C 6.3125 13.121094 8.867188 12.527344 12.285156 12.375 L 12.285156 14.703125 C 12.511719 14.71875 13.152344 14.753906 14.035156 14.753906 C 15.097656 14.753906 15.632812 14.710938 15.730469 14.703125 L 15.730469 12.375 C 19.144531 12.527344 21.691406 13.125 21.691406 13.835938 C 21.691406 14.542969 19.140625 15.140625 15.730469 15.292969 "/>
</g>
</svg>
